# xmcd
#
# Track frame offsets: 
#        150
#        11042
#        23404
#        33056
#        44136
#        56094
#        67919
#        78121
#        88616
#        100720
#        110623
#        122163
#        133995
#        147520
#        158398
#        169583
#        180844
#        189228
#        201005
#        213896
#        224558
#        238011
#        248332
#        259210
#        271962
#        285341
#        294707
#        307396
#        320050
#
# Disc length: 4379 seconds
#
# Revision: 0
# Processed by: cddbd v1.5.2PL0 Copyright (c) Steve Scherf et al.
# Submitted via: ExactAudioCopyFreeDBPlugin 1.0
#
DISCID=9d11191d
DTITLE=Various Artist - The History of New Orleans Rhythm and Blues, Vo
DTITLE=lume 3:  Jazz, Blues and Creole Roots, 1953-1955
DYEAR=2013
DGENRE=Rhythm and Blues
TTITLE0=Fats Domino - Ain't It a Shame
TTITLE1=Smiley Lewis - I Hear You Knocking
TTITLE2=The Hawks - It's Too Late Now
TTITLE3=James Booker - Doing the Hambone
TTITLE4=The Kidds - Drunk, Drunk, Drunk
TTITLE5=Little Richard - I'm Just a Lonely Guy
TTITLE6=Ernest Kador - So Glad You're Mine
TTITLE7=Earl King - Little Girl
TTITLE8=Lightning Junior and the Empires (Champion Jack Dupree) - Somebo
TTITLE8=dy Changed the Lock
TTITLE9=The Hawketts - Mardi Gras Mambo
TTITLE10=Al Collins - I Got the Blues for You
TTITLE11=Li'l Millet and His Creoles - Rich Woman
TTITLE12=Champion Jack Dupree - Walking the Blues (ft Mr. Bear)
TTITLE13=Earl King - Those Lonely, Lonely Nights
TTITLE14=Wee Willie Wayne - Travelin' Mood
TTITLE15=Huey "Piano" Smith - We Like Mambo
TTITLE16=Big Boy Myles and The Sha-Weez - Who's Been Fooling You?
TTITLE17=The Spiders - Witchcraft
TTITLE18=Lloyd Lambert - Heavy Sugar
TTITLE19=Guitar Slim - I Got Sumpin' for You
TTITLE20=Champion Jack Dupree - Stumbling Block
TTITLE21=Fats Domino - Poor Me
TTITLE22=Little Richard - Tutti Frutti
TTITLE23=Bobby Charles - See You Later, Alligator
TTITLE24=Elmore James and The Broomdusters - Goodbye Baby
TTITLE25=Earl King and The Kings - 'Til I Say Well Done
TTITLE26=Nathan Abshire - Crying Pinegrove Blues
TTITLE27=Boozoo Chavis - Forty One Days
TTITLE28=Clifton Chenier - Ay-TeTe Fe
EXTD=
EXTT0=
EXTT1=
EXTT2=
EXTT3=
EXTT4=
EXTT5=
EXTT6=
EXTT7=
EXTT8=
EXTT9=
EXTT10=
EXTT11=
EXTT12=
EXTT13=
EXTT14=
EXTT15=
EXTT16=
EXTT17=
EXTT18=
EXTT19=
EXTT20=
EXTT21=
EXTT22=
EXTT23=
EXTT24=
EXTT25=
EXTT26=
EXTT27=
EXTT28=
PLAYORDER=
